<?xml version="1.0" encoding="UTF-8"?>
<svg width="331px" height="277px" viewBox="0 0 331 277" version="1.1" xmlns="http://www.w3.org/2000/svg" xmlns:xlink="http://www.w3.org/1999/xlink">
    <!-- Generator: Sketch 61.2 (89653) - https://sketch.com -->
    <title>safcsp-white</title>
    <desc>Created with Sketch.</desc>
    <g id="Page-2" stroke="none" stroke-width="1" fill="none" fill-rule="evenodd" opacity="0.589448475">
        <g id="safcsp-white" fill-rule="nonzero">
            <g id="#fffffffd" fill="#608E77">
                <path d="M84.4090061,0.336808312 C87.0176195,0.0990612684 89.7098846,0.105665353 92.239249,0.880544608 C94.8038352,1.5387517 97.0712375,2.98944894 99.2703977,4.41593121 C122.518977,19.2553092 145.793972,34.05066 169.046954,48.8856353 C170.975346,50.0017255 172.688006,51.7187875 175.043463,51.8552719 C185.081671,53.1034439 195.135289,54.2437492 205.1779,55.4478939 C211.284477,55.7450777 217.316208,58.7477349 220.710707,63.9231358 C240.291818,90.2800373 259.877331,116.632536 279.43863,143.004847 C280.614157,144.501773 281.622381,146.298084 283.381268,147.196239 C285.338279,147.801614 287.422968,147.799412 289.448221,147.995334 C298.830424,148.785622 308.206022,149.646355 317.588225,150.419033 C319.314092,150.573128 321.271103,150.733827 322.574309,152.039235 C323.923743,153.50314 324.531319,155.446942 325.264373,157.260864 C329.136568,167.122964 330.950489,177.856803 330.014911,188.438747 C328.31546,204.167475 319.600269,218.498339 307.935255,228.910779 C306.640854,230.161152 304.798315,230.484752 303.134085,230.944837 C286.225427,235.07239 269.393817,239.51914 252.491764,243.666505 C248.747248,244.943295 244.617493,240.921407 245.93831,237.121857 C247.961362,231.45115 250.431289,225.943344 252.749323,220.387107 C254.856026,215.517695 257.099213,210.692311 258.708408,205.626978 C260.702842,199.377313 261.618608,192.797443 261.490929,186.241789 C261.074872,176.595422 257.590117,167.292469 252.474153,159.180451 C248.042812,152.065651 242.585637,145.66189 236.897319,139.535501 C223.281898,124.814997 207.918595,111.82036 191.971933,99.7040659 C152.043637,69.5167954 108.29598,44.9011709 67.5553823,15.880622 C65.4949079,14.6434568 63.7360201,12.1647238 64.4778789,9.67718524 C64.8102845,7.74218846 66.3578416,6.26507488 68.1541526,5.62447868 C72.1496238,4.16497599 76.1979276,2.85736725 80.2000029,1.41767682 C81.5626456,0.924571838 82.9693157,0.528326765 84.4090061,0.336808312 Z" id="Path"></path>
                <path d="M0,84.9703533 C0.358821928,84.3495693 0.79689287,83.6209187 1.56076532,83.4800315 C2.45231673,83.488837 3.10171838,84.2262931 3.72910641,84.7568212 C6.31790756,87.1783189 9.00797134,89.4875471 11.8103046,91.6580896 C29.0711802,105.099603 49.207034,114.092165 69.4309423,122.078704 C86.7930806,128.918335 104.412778,135.08655 121.757306,141.970207 C136.669329,147.858849 151.372222,154.289026 165.764724,161.355397 C179.358131,168.241255 192.799645,175.626823 204.86971,184.993617 C217.030031,194.318584 227.292778,206.045237 235.222082,219.136734 C235.878088,220.118541 235.270512,221.690313 234.02234,221.635279 C232.003692,220.911031 230.442927,219.35687 228.651018,218.236377 C221.001287,213.177648 212.332325,209.897619 203.619336,207.185542 C192.317546,203.7228 180.800023,201.037139 169.30011,198.336069 C141.212939,191.848656 112.960665,185.297405 86.1612899,174.468907 C69.4771709,167.774567 53.4688699,159.257499 38.9971193,148.561083 C33.3021971,144.488565 29.2274769,138.685776 25.2209989,133.05029 C17.287292,121.962032 10.0338058,110.382871 3.54199068,98.3920545 C1.64221569,94.9667359 0.581159441,91.1473737 0,87.2927897 L0,84.9703533 Z" id="Path"></path>
                <path d="M126.648731,257.411807 C128.416424,257.361175 129.966183,258.340781 131.579781,258.928545 C138.831066,261.634018 146.491804,263.034084 154.128327,264.125959 C166.5352,265.849625 179.115981,266.426382 191.370961,269.153869 C194.754454,269.981581 198.201786,270.721238 201.402565,272.136714 C202.520857,272.579187 202.23468,274.573621 201.109784,274.848791 C198.032281,275.07333 195.00761,274.395311 191.96753,274.062905 C181.839066,272.830143 171.717205,271.553353 161.590942,270.313986 C159.325741,270.052024 157.014312,269.54351 154.749111,269.902332 C152.38705,271.841731 150.458657,274.26543 148.145026,276.270871 L147.158816,276.270871 C139.832685,271.456493 132.757509,266.199642 126.327332,260.231751 C125.3059,259.615369 125.475405,257.717796 126.648731,257.411807 Z" id="Path"></path>
            </g>
            <g id="#ffffffff" transform="translate(9.906127, 30.158653)" fill="#51888A">
                <path d="M28.0717621,6.06695235 C27.1537943,3.33946542 29.4366062,0.165102114 32.2829667,0.21513547 C32.5537341,0.226740236 32.8245016,0.228941598 33.0952691,0.224538875 C34.5239527,0.21793479 35.6180294,1.28779649 36.7803483,1.95701039 C66.4547015,21.7780695 98.2027374,38.1848169 128.698198,56.6586428 C148.169241,68.4623432 167.202213,81.1267761 184.599573,95.8604887 C185.924793,97.031613 187.371087,98.0750584 188.570829,99.3804658 C188.674293,99.576387 188.834992,99.7040659 189.05733,99.7613013 C189.638489,100.095908 190.169018,100.569201 190.565263,101.123944 C190.655518,101.326469 190.809614,101.462954 191.027549,101.531196 C191.791421,102.024301 192.445225,102.691314 193.019781,103.397951 C193.235514,103.68853 193.501879,103.939485 193.801264,104.146413 C195.729657,105.610319 197.332248,107.444053 199.062518,109.128095 C200.447174,110.547973 201.966114,111.855582 203.148245,113.460374 C203.291334,113.704725 203.485053,113.920459 203.7228,114.089963 C204.290752,114.627096 205.008396,115.095986 205.347405,115.83124 C205.395835,116.049175 205.521313,116.212076 205.723838,116.317741 C207.128307,117.491067 208.20037,118.994597 209.384702,120.377052 C217.972214,130.736659 225.285137,142.174934 230.790742,154.460732 C231.442345,155.715508 229.454515,157.210233 228.573971,155.997283 C228.485916,155.788153 228.340626,155.642863 228.138101,155.563614 C227.821105,155.363291 227.567948,155.066107 227.433665,154.722694 C227.37643,154.500357 227.24655,154.339657 227.048427,154.242798 C226.592745,153.886177 226.154674,153.465717 225.897115,152.955001 C225.844282,152.730462 225.718805,152.567561 225.525085,152.464097 C223.550464,150.625961 221.560433,148.761407 219.790538,146.727349 C219.691477,146.522623 219.537382,146.38834 219.326051,146.322299 C214.417015,142.384063 209.534395,138.366578 204.132254,135.095355 C180.7626,120.385857 155.026482,110.065875 129.296969,100.300635 C108.637191,92.4681906 87.8057069,84.9857628 67.8415593,75.4648742 C50.4441992,67.2119699 33.7292612,57.2882322 18.9317091,44.9099764 C17.9939291,44.0910699 16.9372755,43.3712247 16.1535908,42.3916188 C16.0501268,42.1890935 15.8916288,42.0614145 15.6714927,42.0085819 C15.1585754,41.7400158 14.7293099,41.3173544 14.3814948,40.8616725 C14.2846349,40.6569459 14.1305396,40.5226628 13.9148062,40.4588234 C13.1619405,39.9679197 12.4993307,39.3339276 11.946789,38.6272906 C11.7860896,38.3851408 11.5725575,38.1892196 11.3282064,38.0395271 C9.51868721,36.6944952 8.04597635,34.9708291 6.43457972,33.4100638 C4.94645933,31.8735134 3.30424364,30.4690448 2.01424579,28.7519828 C1.86675457,28.503229 1.66863203,28.2896969 1.43748907,28.120192 C-0.543736295,26.4361505 -0.409453243,22.9271802 1.43748907,21.1947087 C1.66422931,21.0230025 1.87115729,20.82488 2.05607166,20.6069452 C2.87057542,19.7462128 4.04610247,19.3983977 5.12697098,19.0087567 C6.67452813,18.4231946 8.31894518,18.0863862 9.97436904,18.0555672 C10.2341297,18.0819835 10.491689,18.042359 10.7382415,17.9675127 C11.0948621,17.8882637 11.4602881,17.8882637 11.8213114,17.9014719 C12.5015321,17.9344923 13.1861555,17.9917277 13.8663762,18.018144 C18.2602938,17.9675127 22.7532727,18.511249 27.0613372,17.3929574 C28.8224264,16.873436 30.7464163,16.6070713 32.3027789,15.5680287 C33.0424364,15.1563741 32.881737,14.139345 32.4854919,13.5207625 C30.9181225,11.1058689 28.875259,8.88689645 28.0717621,6.06695235 Z" id="Path"></path>
                <path d="M57.0152633,165.542386 C57.1187273,164.217167 58.6464722,163.618396 59.7889789,163.913379 C81.6881233,169.951713 104.436993,172.135464 126.353748,178.112161 C146.709738,183.584745 166.726719,191.641728 183.593551,204.506485 C184.850528,205.59836 186.380474,206.410663 187.470148,207.687453 C187.571411,207.885575 187.73211,208.013254 187.954448,208.068288 C188.399123,208.246598 188.757945,208.594413 189.02431,208.990659 C189.114565,209.193184 189.270862,209.327467 189.488797,209.393508 C190.07656,209.747927 190.569665,210.260844 191.018743,210.78697 C191.183845,211.020314 191.395176,211.216235 191.646131,211.368129 C192.863484,212.268486 194.041212,213.289918 194.886535,214.564506 C195.337814,215.581535 195.07145,216.831908 194.120461,217.450491 C193.323569,218.150524 192.174458,217.818118 191.296115,217.51433 C182.664576,214.844079 173.557544,214.487458 164.657439,213.399986 C164.461518,213.281112 164.25459,213.250293 164.038856,213.307528 C163.281588,213.318535 162.515514,213.444013 161.791266,213.201863 C161.599748,213.074184 161.395021,213.036761 161.177086,213.089594 C160.419818,213.093996 159.653744,213.223877 158.929496,212.979526 C158.737978,212.851847 158.533251,212.814424 158.315316,212.869458 C157.489806,212.878263 156.644483,213.016949 155.84759,212.754987 C155.656072,212.629509 155.451345,212.592086 155.23341,212.64712 C154.4079,212.658127 153.562577,212.796813 152.765684,212.537052 C152.574166,212.411574 152.369439,212.376353 152.151504,212.429185 C151.242342,212.497427 150.346388,212.462206 149.459239,212.325721 C149.269922,212.195841 149.065195,212.156216 148.84726,212.209049 C148.00634,212.231063 147.161018,212.305909 146.344312,212.083571 C146.09776,211.991114 145.840201,211.949288 145.584843,211.995517 C144.746124,211.977906 143.891996,212.127599 143.079693,211.874442 C142.888175,211.746763 142.683448,211.711541 142.465513,211.766575 C141.642204,211.779784 140.79468,211.916268 139.997787,211.656507 C139.806269,211.53103 139.601542,211.493607 139.383607,211.548641 C138.62854,211.555245 137.860265,211.685125 137.136017,211.440774 C136.9467,211.310894 136.741973,211.269068 136.524039,211.319699 C134.969877,211.324102 133.369488,211.394545 131.857152,210.987293 C131.661231,210.866219 131.456504,210.833198 131.23857,210.886031 C130.615584,210.974085 130.012411,210.941065 129.429051,210.793574 C129.239733,210.663693 129.035007,210.621867 128.817072,210.668096 C128.418626,210.643881 127.623934,210.59325 127.225488,210.569035 C127.038372,210.43255 126.835847,210.388523 126.61571,210.434752 C125.358733,210.498591 124.110561,210.344496 122.866792,210.194803 C112.066912,208.871785 101.291248,206.868546 90.9822716,203.322153 C85.5955399,201.58748 80.499388,198.754327 76.4466815,194.778669 C75.6585941,193.933346 74.8462917,193.116641 74.0097743,192.326352 C71.7819964,190.162413 70.1067603,187.518578 68.4645446,184.905562 C64.9511716,179.397756 61.4091809,173.909761 57.8914052,168.406358 C57.512771,167.506001 56.4297012,166.610047 57.0152633,165.542386 Z" id="Path"></path>
            </g>
        </g>
    </g>
</svg>